Coordinates
version=1
nRows=16
nColumns=63
inDegrees=yes

Units are S.I. units (second, meters, Newtons, ...)
If the header above contains a line with 'inDegrees', this indicates whether rotational values are in degrees (yes) or radians (no).

endheader
time	pelvis_tilt	pelvis_list	pelvis_rotation	pelvis_tx	pelvis_ty	pelvis_tz	hip_flexion_r	hip_adduction_r	hip_rotation_r	knee_angle_r	knee_angle_r_beta	ankle_angle_r	subtalar_angle_r	mtp_angle_r	hip_flexion_l	hip_adduction_l	hip_rotation_l	knee_angle_l	knee_angle_l_beta	ankle_angle_l	subtalar_angle_l	mtp_angle_l	L5_S1_Flex_Ext	L5_S1_Lat_Bending	L5_S1_axial_rotation	L4_L5_Flex_Ext	L4_L5_Lat_Bending	L4_L5_axial_rotation	L3_L4_Flex_Ext	L3_L4_Lat_Bending	L3_L4_axial_rotation	L2_L3_Flex_Ext	L2_L3_Lat_Bending	L2_L3_axial_rotation	L1_L2_Flex_Ext	L1_L2_Lat_Bending	L1_L2_axial_rotation	L1_T12_Flex_Ext	L1_T12_Lat_Bending	L1_T12_axial_rotation	Abs_r3	Abs_r2	Abs_r1	Abs_t1	Abs_t2	neck_flexion	neck_bending	neck_rotation	arm_flex_r	arm_add_r	arm_rot_r	elbow_flex_r	pro_sup_r	wrist_flex_r	wrist_dev_r	arm_flex_l	arm_add_l	arm_rot_l	elbow_flex_l	pro_sup_l	wrist_flex_l	wrist_dev_l
4.000000	12.255694	-31.713045	108.310855	0.121768	0.820577	0.634313	61.900049	5.795439	1.691800	43.634820	0.761571	38.526885	-17.428103	0.000000	64.081918	0.539959	8.959230	48.097163	0.839454	40.891595	-16.923206	0.000000	-0.813485	0.802890	0.529850	-1.510723	1.067844	0.562965	-1.336474	1.952147	0.562965	-0.929732	1.952147	0.463618	-0.755402	1.637253	0.430503	-0.464825	1.243677	0.397387	-5.810641	9.082452	2.946864	0.000000	0.000000	-13.276467	-9.031678	8.222886	-22.614362	-38.241410	-28.584215	73.760055	83.209147	14.297842	-0.259987	41.639896	-49.094815	6.993184	113.279412	88.249657	-5.569969	6.361722
4.025000	11.340505	-32.307607	107.232833	0.122934	0.820031	0.632951	62.248932	5.747188	2.724372	43.935503	0.766819	38.355645	-17.465780	0.000000	63.938501	0.502829	8.029617	47.773131	0.833798	41.003778	-17.036580	0.000000	-0.794830	0.627586	0.326586	-1.476080	0.834690	0.346997	-1.305827	1.525913	0.346997	-0.908412	1.525913	0.285763	-0.738080	1.279774	0.265351	-0.454166	0.972131	0.244939	-5.677394	7.099382	1.816372	0.000000	0.000000	-13.371912	-8.845498	9.104723	-23.866917	-38.033533	-27.192714	71.763413	83.493754	14.259664	-2.456975	41.793402	-50.399926	6.382608	113.426761	88.246110	-4.630922	7.263734
4.050000	9.786400	-32.820703	105.523147	0.124458	0.820344	0.630851	62.478828	5.569154	4.220358	44.119095	0.770023	38.319765	-17.353024	0.000000	63.483195	0.639426	6.657947	47.035513	0.820925	41.005079	-17.141748	0.000000	-0.775713	0.391501	0.075280	-1.440577	0.520696	0.079986	-1.274419	0.951896	0.079986	-0.886563	0.951896	0.065870	-0.720327	0.798349	0.061165	-0.443243	0.606435	0.056460	-5.540842	4.428739	0.418688	0.000000	0.000000	-13.414039	-7.942152	9.389376	-21.315128	-38.308994	-24.694856	72.155028	82.819756	12.956288	-3.832461	39.942944	-51.020200	6.441854	110.851991	88.266227	-4.868841	6.413288
4.075000	7.600459	-33.339729	103.249531	0.126241	0.821308	0.628198	62.667718	5.209164	6.144526	44.268469	0.772631	38.458238	-17.107298	0.000000	62.807386	0.973864	4.873477	45.969573	0.802320	40.917840	-17.241641	0.000000	-0.758732	0.099296	-0.185553	-1.409041	0.132064	-0.197150	-1.246521	0.241429	-0.197150	-0.867155	0.241429	-0.162359	-0.704558	0.202485	-0.150762	-0.433539	0.153810	-0.139165	-5.419546	1.123262	-1.031992	0.000000	0.000000	-13.405490	-6.266446	8.909552	-14.912014	-38.791315	-20.697446	74.841111	81.070438	10.208760	-4.935133	36.120711	-51.104159	7.115478	106.114434	88.315832	-5.922796	4.526455
4.100000	5.470713	-33.755067	100.991365	0.127194	0.822861	0.625258	62.646743	4.795203	7.864864	44.270216	0.772661	38.731909	-16.696038	0.000000	62.003960	1.357233	3.281170	44.871202	0.783150	40.830119	-17.364461	0.000000	-0.745659	-0.154575	-0.413069	-1.384763	-0.205584	-0.438886	-1.225043	-0.375833	-0.438886	-0.852213	-0.375833	-0.361435	-0.692419	-0.315209	-0.335618	-0.426069	-0.239436	-0.309802	-5.326166	-1.748579	-2.297365	0.000000	0.000000	-13.489071	-4.313858	7.756259	-6.588075	-39.967267	-16.483627	80.197847	78.471141	5.890996	-5.489327	30.502266	-50.598082	8.668477	99.979241	88.405886	-8.242332	1.719308
4.125000	3.706171	-33.960602	99.029058	0.126855	0.824900	0.622178	62.322781	4.394944	9.094549	44.074845	0.769251	39.110208	-16.136620	0.000000	61.101417	1.732473	2.147363	43.865021	0.765589	40.781478	-17.516122	0.000000	-0.735920	-0.327290	-0.558731	-1.366676	-0.435295	-0.593652	-1.209042	-0.795772	-0.593652	-0.841082	-0.795772	-0.488890	-0.683375	-0.667409	-0.453969	-0.420504	-0.506972	-0.419049	-5.256599	-3.702365	-3.107497	0.000000	0.000000	-13.755024	-2.291559	6.010245	0.684026	-42.066738	-14.210503	88.475132	75.341138	0.638706	-4.847333	23.064926	-49.610325	10.569274	93.461626	88.540129	-11.121339	-1.653250
4.150000	2.412042	-33.894058	97.486678	0.125159	0.827237	0.619173	61.712021	4.008852	9.723255	43.698394	0.762681	39.560128	-15.452203	0.000000	60.153402	2.107833	1.540676	43.003426	0.750551	40.751052	-17.677855	0.000000	-0.729784	-0.406436	-0.621958	-1.355281	-0.540560	-0.660830	-1.198962	-0.988208	-0.660830	-0.834070	-0.988208	-0.544213	-0.677677	-0.828804	-0.505341	-0.416998	-0.629569	-0.466468	-5.212772	-4.597682	-3.459142	0.000000	0.000000	-14.163936	-0.308293	3.981385	5.079640	-44.355405	-14.844846	98.991449	72.243628	-4.573648	-2.456534	13.851517	-48.162078	11.827141	87.328600	88.710113	-13.457882	-5.154471
4.175000	1.571385	-33.620558	96.415554	0.122313	0.829803	0.616046	60.847127	3.606606	9.812446	43.150881	0.753125	40.042924	-14.722994	0.000000	59.188331	2.504658	1.400081	42.266718	0.737693	40.703205	-17.848559	0.000000	-0.717659	-0.415009	-0.625062	-1.332764	-0.551962	-0.664128	-1.179041	-1.009053	-0.664128	-0.820212	-1.009053	-0.546929	-0.666418	-0.846286	-0.507863	-0.410070	-0.642849	-0.468796	-5.126164	-4.694665	-3.476405	0.000000	0.000000	-14.777476	1.727220	1.726930	7.697452	-46.285185	-17.247505	109.144949	67.305861	-4.140843	1.568335	3.125405	-46.452337	11.827877	82.157616	88.905473	-15.581940	-8.763239
4.200000	1.026704	-33.177220	95.738150	0.118737	0.832519	0.612655	59.766663	3.138945	9.563466	42.514129	0.742012	40.543489	-14.021255	0.000000	58.179834	2.964548	1.549447	41.624437	0.726483	40.627241	-18.031077	0.000000	-0.700680	-0.381946	-0.557652	-1.301233	-0.507989	-0.592505	-1.151147	-0.928664	-0.592505	-0.800807	-0.928664	-0.487946	-0.650651	-0.778865	-0.453092	-0.400369	-0.591635	-0.418239	-5.004887	-4.320652	-3.101494	0.000000	0.000000	-15.546397	3.709638	-0.576673	8.978788	-47.576079	-19.793491	117.271436	63.264180	-2.031708	5.415178	-8.315726	-44.813456	10.327315	78.301900	89.120394	-17.826138	-12.705385
4.225000	0.764130	-32.605838	95.469949	0.114700	0.835204	0.609199	58.515669	2.626859	9.056336	41.887809	0.731080	41.030843	-13.403149	0.000000	57.161796	3.455307	1.939095	41.160348	0.718384	40.572705	-18.239494	0.000000	-0.685821	-0.315841	-0.402871	-1.273637	-0.420068	-0.428051	-1.126735	-0.767935	-0.428051	-0.783824	-0.767935	-0.352512	-0.636853	-0.644062	-0.327333	-0.391878	-0.489237	-0.302153	-4.898748	-3.572854	-2.240648	0.000000	0.000000	-16.373093	5.358834	-2.766573	9.439447	-48.102306	-21.251614	121.911674	60.468405	-0.733074	7.378662	-18.942540	-43.356067	7.621341	75.886296	89.351179	-20.044501	-16.796712
4.250000	0.109026	-32.196107	95.077090	0.111505	0.837339	0.606066	57.411883	1.994263	8.943161	41.593871	0.725950	41.484684	-12.914261	0.000000	56.207711	4.035713	1.885450	40.822463	0.712486	40.550610	-18.475800	0.000000	-0.679126	-0.313548	-0.166686	-1.261205	-0.417019	-0.177103	-1.115737	-0.762361	-0.177103	-0.776173	-0.762361	-0.145850	-0.630637	-0.639387	-0.135432	-0.388053	-0.485686	-0.125014	-4.850931	-3.546919	-0.927055	0.000000	0.000000	-16.985184	6.719759	-4.584012	9.924098	-47.587022	-20.849829	121.981602	58.645824	-0.677670	7.721958	-26.477699	-42.590137	4.895253	74.783366	89.521092	-22.095999	-20.414091
4.275000	0.049159	-31.559913	95.329059	0.107718	0.839260	0.603747	56.187373	1.453206	8.330486	41.325750	0.721270	41.796708	-12.533531	0.000000	55.369412	4.512134	2.282737	40.813714	0.712334	40.611894	-18.680134	0.000000	-0.695761	-0.243062	0.121132	-1.292098	-0.323272	0.128702	-1.143066	-0.590980	0.128702	-0.795185	-0.590980	0.105990	-0.646084	-0.495651	0.098419	-0.397558	-0.376502	0.090849	-4.969751	-2.749561	0.673697	0.000000	0.000000	-17.188435	6.967650	-5.871488	9.676423	-46.610377	-19.614024	118.039175	57.904668	-0.862134	6.855921	-30.589128	-41.777749	1.988967	74.927405	89.589267	-23.738452	-23.037638
4.300000	-1.023570	-31.120808	94.910856	0.105616	0.840583	0.601873	55.278914	0.826893	8.618109	41.457205	0.723565	41.990470	-12.240856	0.000000	54.546745	5.102006	1.655058	40.703092	0.710403	40.676483	-18.760046	0.000000	-0.713323	-0.314748	0.422061	-1.324712	-0.418614	0.448440	-1.171918	-0.765278	0.448440	-0.815257	-0.765278	0.369303	-0.662392	-0.641834	0.342925	-0.407593	-0.487544	0.316546	-5.095195	-3.560489	2.347377	0.000000	0.000000	-16.695858	6.950325	-6.417634	8.937370	-44.470723	-17.074857	110.612710	58.380311	-1.714619	4.715920	-28.921988	-41.735744	1.311610	76.210045	89.392083	-25.137351	-24.371562
4.325000	-2.063544	-30.754298	94.661785	0.103951	0.841796	0.600365	54.487901	0.195494	8.981697	41.699282	0.727790	42.010072	-12.104299	0.000000	53.797401	5.645522	0.891648	40.624797	0.709036	40.764008	-18.683946	0.000000	-0.726434	-0.410581	0.719295	-1.349061	-0.546073	0.764251	-1.193459	-0.998287	0.764251	-0.830242	-0.998287	0.629383	-0.674567	-0.837257	0.584427	-0.415085	-0.635990	0.539471	-5.188848	-4.644575	4.000502	0.000000	0.000000	-15.873951	6.375401	-6.273664	6.911968	-41.650403	-14.577858	101.278125	60.239798	-2.134548	1.648127	-23.874686	-42.347627	1.082727	79.242445	89.268567	-26.156231	-24.484164
4.350000	-2.306113	-30.398399	95.142215	0.101721	0.843005	0.599292	53.771236	-0.351305	8.818882	41.830633	0.730082	41.815451	-12.131804	0.000000	53.264794	6.015647	0.617586	40.690960	0.710191	40.879030	-18.414582	0.000000	-0.723844	-0.441356	0.951256	-1.344250	-0.587004	1.010709	-1.189203	-1.073113	1.010709	-0.827281	-1.073113	0.832349	-0.672161	-0.900013	0.772895	-0.413604	-0.683661	0.713442	-5.170342	-4.992709	5.290598	0.000000	0.000000	-14.905200	5.082602	-5.308321	3.256199	-38.850626	-12.801763	91.649377	63.241102	-1.453580	-1.415081	-18.848599	-43.589135	-0.976570	84.525612	89.201870	-26.658997	-23.939289
4.375000	-1.844331	-30.068730	96.203609	0.099065	0.844187	0.598520	53.187515	-0.772998	8.204952	41.794924	0.729459	41.389032	-12.312758	0.000000	52.953890	6.210221	0.721508	40.792464	0.711963	40.975677	-17.860433	0.000000	-0.698507	-0.416096	1.065222	-1.297198	-0.553408	1.131798	-1.147578	-1.011697	1.131798	-0.798324	-1.011697	0.932069	-0.648634	-0.848504	0.865493	-0.399127	-0.644533	0.798916	-4.989368	-4.706966	5.924444	0.000000	0.000000	-13.745881	3.351483	-3.623681	-1.443371	-36.483172	-11.739447	82.668697	66.888710	0.432032	-3.293528	-15.239075	-44.933045	-5.114116	91.635053	89.150411	-25.723271	-22.570586
